# xmcd CD database file
#
# Track frame offsets:
#	150
#	18806
#	43972
#	74284
#	100488
#	127864
#	148735
#	167145
#	198575
#	229164
#	252978
#	278548
#
# Disc length: 4008 seconds
#
# Revision: 2
# Processed by: cddbd v1.5.1PL2 Copyright (c) Steve Scherf et al.
# Submitted via: CDex 1.51
#
DISCID=ab0fa60c
DTITLE=Dave Specter and Steve Freund - Is What It Is
DYEAR=2004
DGENRE=Blues
TTITLE0=My Little Playhouse
TTITLE1=Is What It Is
TTITLE2=People Get Ready
TTITLE3=Hoverin' Hawk
TTITLE4=While My Guitar Gently Weeps
TTITLE5=Albatross
TTITLE6=Loan a Helping Hand
TTITLE7=Too Hot at Home
TTITLE8=Riverside Ride
TTITLE9=Rollin' Man
TTITLE10=Adrienne
TTITLE11=She Needs Some Loving
EXTD=Solid Chicago Blues YEAR: 2004
EXTT0=Dave Spector and Steve Freund
EXTT1=Dave Spector and Steve Freund
EXTT2=Dave Spector and Steve Freund
EXTT3=Dave Spector and Steve Freund
EXTT4=Dave Spector and Steve Freund
EXTT5=Dave Spector and Steve Freund
EXTT6=Dave Spector and Steve Freund
EXTT7=Dave Spector and Steve Freund
EXTT8=Dave Spector and Steve Freund
EXTT9=Dave Spector and Steve Freund
EXTT10=Dave Spector and Steve Freund
EXTT11=Dave Spector and Steve Freund
PLAYORDER=
